HIERARCHY
ROOT Hip
{
	OFFSET 1.562290 -1.744753 -0.027700
	CHANNELS 6 Xposition Yposition Zposition Xrotation Yrotation Zrotation
	JOINT LowerSpine
	{
		OFFSET 0.000000 0.154692 0.259874
		CHANNELS 6 Xposition Yposition Zposition Xrotation Yrotation Zrotation
		JOINT MiddleSpine
		{
			OFFSET -0.000000 -0.011152 0.237154
			CHANNELS 3 Xrotation Yrotation Zrotation
			JOINT Chest
			{
				OFFSET 0.000000 0.058786 0.293449
				CHANNELS 3 Xrotation Yrotation Zrotation
				JOINT Neck
				{
					OFFSET -0.000000 0.012376 0.661279
					CHANNELS 6 Xposition Yposition Zposition Xrotation Yrotation Zrotation
					JOINT Head
					{
						OFFSET -0.000003 -0.101573 0.373433
						CHANNELS 3 Xrotation Yrotation Zrotation
						End Site
						{
							OFFSET 0.000000 -0.001601 0.053629
						}
					}
				}
				JOINT LClavicle
				{
					OFFSET 0.060085 -0.196776 0.638167
					CHANNELS 6 Xposition Yposition Zposition Xrotation Yrotation Zrotation
					JOINT LShoulder
					{
						OFFSET 0.351028 0.148115 0.091535
						CHANNELS 3 Xrotation Yrotation Zrotation
						JOINT LForearm
						{
							OFFSET 0.828500 0.007179 -0.002937
							CHANNELS 3 Xrotation Yrotation Zrotation
							JOINT LHand
							{
								OFFSET 0.691143 0.004141 0.002005
								CHANNELS 3 Xrotation Yrotation Zrotation
								JOINT LFinger1
								{
									OFFSET 0.267867 -0.074399 0.023428
									CHANNELS 6 Xposition Yposition Zposition Xrotation Yrotation Zrotation
									JOINT LFinger11
									{
										OFFSET 0.100195 -0.017654 -0.024433
										CHANNELS 3 Xrotation Yrotation Zrotation
										JOINT LFinger12
										{
											OFFSET 0.068401 -0.012057 -0.016682
											CHANNELS 3 Xrotation Yrotation Zrotation
											End Site
											{
												OFFSET 0.050801 -0.008241 -0.015164
											}
										}
									}
								}
								JOINT LFinger2
								{
									OFFSET 0.271866 -0.006476 0.027054
									CHANNELS 6 Xposition Yposition Zposition Xrotation Yrotation Zrotation
									JOINT LFinger21
									{
										OFFSET 0.123886 0.000731 0.000344
										CHANNELS 3 Xrotation Yrotation Zrotation
										JOINT LFinger22
										{
											OFFSET 0.068670 0.000417 0.000210
											CHANNELS 3 Xrotation Yrotation Zrotation
											End Site
											{
												OFFSET 0.053519 -0.000073 -0.003780
											}
										}
									}
								}
								JOINT LFinger3
								{
									OFFSET 0.257650 0.060956 0.018054
									CHANNELS 6 Xposition Yposition Zposition Xrotation Yrotation Zrotation
									JOINT LFinger31
									{
										OFFSET 0.112415 0.007039 -0.005692
										CHANNELS 3 Xrotation Yrotation Zrotation
										JOINT LFinger32
										{
											OFFSET 0.064059 0.004024 -0.003223
											CHANNELS 3 Xrotation Yrotation Zrotation
											End Site
											{
												OFFSET 0.053193 0.002514 -0.006540
											}
										}
									}
								}
								JOINT LFinger4
								{
									OFFSET 0.239088 0.105269 -0.018169
									CHANNELS 6 Xposition Yposition Zposition Xrotation Yrotation Zrotation
									JOINT LFinger41
									{
										OFFSET 0.069146 0.019088 -0.014420
										CHANNELS 3 Xrotation Yrotation Zrotation
										JOINT LFinger42
										{
											OFFSET 0.050705 0.014005 -0.010559
											CHANNELS 3 Xrotation Yrotation Zrotation
											End Site
											{
												OFFSET 0.050514 0.011591 -0.013879
											}
										}
									}
								}
								JOINT LFinger0
								{
									OFFSET 0.055412 -0.042008 -0.041941
									CHANNELS 6 Xposition Yposition Zposition Xrotation Yrotation Zrotation
									JOINT LFinger01
									{
										OFFSET 0.103168 -0.077784 -0.033880
										CHANNELS 3 Xrotation Yrotation Zrotation
										JOINT LFinger02
										{
											OFFSET 0.067934 -0.048944 -0.024309
											CHANNELS 3 Xrotation Yrotation Zrotation
											End Site
											{
												OFFSET 0.042585 -0.029159 -0.014659
											}
										}
									}
								}
							}
						}
					}
				}
				JOINT RClavicle
				{
					OFFSET -0.060085 -0.196776 0.638167
					CHANNELS 6 Xposition Yposition Zposition Xrotation Yrotation Zrotation
					JOINT RShoulder
					{
						OFFSET -0.351089 0.148140 0.091552
						CHANNELS 3 Xrotation Yrotation Zrotation
						JOINT RForearm
						{
							OFFSET -0.828500 0.007179 -0.002937
							CHANNELS 3 Xrotation Yrotation Zrotation
							JOINT RHand
							{
								OFFSET -0.691144 0.004141 0.002005
								CHANNELS 3 Xrotation Yrotation Zrotation
								JOINT RFinger1
								{
									OFFSET -0.267871 -0.074399 0.023430
									CHANNELS 6 Xposition Yposition Zposition Xrotation Yrotation Zrotation
									JOINT RFinger11
									{
										OFFSET -0.100195 -0.017654 -0.024433
										CHANNELS 3 Xrotation Yrotation Zrotation
										JOINT RFinger12
										{
											OFFSET -0.068401 -0.012057 -0.016688
											CHANNELS 3 Xrotation Yrotation Zrotation
											End Site
											{
												OFFSET -0.050801 -0.008241 -0.015164
											}
										}
									}
								}
								JOINT RFinger2
								{
									OFFSET -0.271866 -0.006479 0.027054
									CHANNELS 6 Xposition Yposition Zposition Xrotation Yrotation Zrotation
									JOINT RFinger21
									{
										OFFSET -0.123886 0.000731 0.000347
										CHANNELS 3 Xrotation Yrotation Zrotation
										JOINT RFinger22
										{
											OFFSET -0.068670 0.000420 0.000210
											CHANNELS 3 Xrotation Yrotation Zrotation
											End Site
											{
												OFFSET -0.053519 -0.000073 -0.003780
											}
										}
									}
								}
								JOINT RFinger3
								{
									OFFSET -0.257650 0.060956 0.018057
									CHANNELS 6 Xposition Yposition Zposition Xrotation Yrotation Zrotation
									JOINT RFinger31
									{
										OFFSET -0.112414 0.007039 -0.005692
										CHANNELS 3 Xrotation Yrotation Zrotation
										JOINT RFinger32
										{
											OFFSET -0.064061 0.004024 -0.003223
											CHANNELS 3 Xrotation Yrotation Zrotation
											End Site
											{
												OFFSET -0.053193 0.002514 -0.006540
											}
										}
									}
								}
								JOINT RFinger4
								{
									OFFSET -0.239089 0.105269 -0.018169
									CHANNELS 6 Xposition Yposition Zposition Xrotation Yrotation Zrotation
									JOINT RFinger41
									{
										OFFSET -0.069146 0.019088 -0.014420
										CHANNELS 3 Xrotation Yrotation Zrotation
										JOINT RFinger42
										{
											OFFSET -0.050705 0.014006 -0.010556
											CHANNELS 3 Xrotation Yrotation Zrotation
											End Site
											{
												OFFSET -0.050514 0.011591 -0.013879
											}
										}
									}
								}
								JOINT RFinger0
								{
									OFFSET -0.055412 -0.042006 -0.041938
									CHANNELS 6 Xposition Yposition Zposition Xrotation Yrotation Zrotation
									JOINT RFinger01
									{
										OFFSET -0.103169 -0.077787 -0.033886
										CHANNELS 3 Xrotation Yrotation Zrotation
										JOINT RFinger02
										{
											OFFSET -0.067934 -0.048944 -0.024307
											CHANNELS 3 Xrotation Yrotation Zrotation
											End Site
											{
												OFFSET -0.042585 -0.029159 -0.014660
											}
										}
									}
								}
							}
						}
					}
				}
			}
		}
	}
	JOINT RThigh
	{
		OFFSET -0.307261 0.025206 0.117468
		CHANNELS 6 Xposition Yposition Zposition Xrotation Yrotation Zrotation
		JOINT RShin
		{
			OFFSET -0.022246 0.000000 -1.209169
			CHANNELS 3 Xrotation Yrotation Zrotation
			JOINT RFoot
			{
				OFFSET 0.000000 0.000000 -1.187331
				CHANNELS 3 Xrotation Yrotation Zrotation
				JOINT RToe
				{
					OFFSET 0.000000 -0.272888 -0.130497
					CHANNELS 3 Xrotation Yrotation Zrotation
					End Site
					{
						OFFSET 0.000000 -0.053652 0.000000
					}
				}
			}
		}
	}
	JOINT LThigh
	{
		OFFSET 0.307258 0.025206 0.117477
		CHANNELS 6 Xposition Yposition Zposition Xrotation Yrotation Zrotation
		JOINT LShin
		{
			OFFSET 0.022246 0.000000 -1.209177
			CHANNELS 3 Xrotation Yrotation Zrotation
			JOINT LFoot
			{
				OFFSET 0.000000 0.000000 -1.187331
				CHANNELS 3 Xrotation Yrotation Zrotation
				JOINT LToe
				{
					OFFSET 0.000000 -0.272891 -0.130499
					CHANNELS 3 Xrotation Yrotation Zrotation
					End Site
					{
						OFFSET 0.000000 -0.053652 0.000000
					}
				}
			}
		}
	}
}
MOTION
Frames: 5
Frame Time: 0.041667
1.073594 -1.096580 2.158336 18.606637 -11.020665 -409.494211 -0.000000 0.154692 0.259873 0.000006 0.000002 -0.000012 -4.437489 -1.481120 -0.471258 -15.183777 -4.803336 -2.319175 0.000000 0.012376 0.661279 -3.215544 -16.825133 -5.122250 0.073449 0.450105 0.013136 0.060085 -0.196776 0.638168 0.027149 2.407498 0.001384 47.871283 32.052971 1.281202 0.121883 -0.297061 -148.116477 -0.000401 0.000121 -0.000442 0.267867 -0.074399 0.023427 -0.000035 0.000021 0.000005 0.000160 0.000063 -0.000162 0.000002 -0.000004 -0.000000 0.271866 -0.006476 0.027053 -0.000038 0.000012 0.000007 0.000044 0.000109 -0.000033 -0.000035 0.000055 -0.000055 0.257650 0.060956 0.018054 -0.000037 0.000010 0.000012 -0.000030 0.000006 0.000017 0.000046 -0.000016 0.000036 0.239088 0.105269 -0.018170 -0.000023 0.000023 0.000035 0.000002 -0.000010 0.000002 -0.000053 0.000027 0.000041 0.055412 -0.042008 -0.041942 -0.000014 -0.000015 0.000026 -0.000061 -0.000057 0.000003 -0.000155 -0.000245 -0.000010 -0.060085 -0.196775 0.638168 -0.166923 -8.468450 -0.332812 1.423729 -57.431318 -29.010177 0.013213 -0.000640 2.751060 -51.269971 -23.802914 4.508658 -0.267870 -0.074399 0.023430 0.000007 0.000003 -0.000000 -0.000005 0.000010 -0.000002 0.000004 -0.000011 -0.000003 -0.271866 -0.006479 0.027054 -0.000000 -0.000004 0.000008 0.000000 0.000006 -0.000002 -0.000000 -0.000002 -0.000006 -0.257650 0.060956 0.018058 0.000002 0.000001 0.000005 0.000012 0.000022 0.000019 0.000008 0.000006 0.000011 -0.239089 0.105269 -0.018169 -0.000007 0.000001 0.000008 0.000005 -0.000026 -0.000000 -0.000001 -0.000006 -0.000009 -0.055411 -0.042005 -0.041938 -0.000013 0.000002 0.000008 -0.000009 0.000006 0.000018 -0.000017 0.000008 -0.000004 -0.309954 0.020048 0.123025 -44.809378 16.863829 -34.844401 52.865309 -0.000006 0.000008 -1.583507 1.773396 -3.583640 -6.819430 0.000009 -0.000004 0.290358 0.061060 0.259881 -46.397847 1.408357 -13.791533 46.225880 -0.000005 -0.000009 -3.067582 1.768126 -3.443242 -5.463640 0.000001 0.000013 
1.066642 -1.089186 2.152316 17.813856 -12.460690 -413.772532 -0.000000 0.154692 0.259874 0.000005 0.000005 -0.000015 -4.489613 -1.463594 -0.569376 -15.329180 -4.700794 -2.597224 0.000000 0.012376 0.661278 -2.745450 -17.171166 -5.152112 0.218030 0.503651 0.013183 0.060086 -0.196776 0.638168 0.023255 2.684293 0.001132 56.742609 36.286507 -3.764134 0.137567 -0.285169 -142.181193 -0.000422 0.000122 -0.000458 0.267866 -0.074399 0.023427 -0.000033 0.000021 0.000005 0.000156 0.000063 -0.000162 0.000008 -0.000006 -0.000002 0.271866 -0.006477 0.027053 -0.000039 0.000011 0.000008 0.000046 0.000109 -0.000034 -0.000040 0.000055 -0.000054 0.257650 0.060956 0.018054 -0.000039 0.000007 0.000012 -0.000026 0.000006 0.000016 0.000051 -0.000017 0.000036 0.239088 0.105269 -0.018170 -0.000025 0.000023 0.000035 0.000004 -0.000012 0.000001 -0.000052 0.000024 0.000038 0.055411 -0.042009 -0.041942 -0.000013 -0.000020 0.000028 -0.000067 -0.000056 0.000005 -0.000157 -0.000246 -0.000012 -0.060085 -0.196776 0.638167 -0.143333 -8.717878 -0.284854 1.347942 -60.698149 -30.835681 0.011000 -0.000468 1.786105 -51.270019 -23.802893 4.508589 -0.267870 -0.074399 0.023430 0.000012 0.000001 -0.000000 -0.000005 0.000009 0.000002 0.000004 -0.000010 -0.000002 -0.271866 -0.006479 0.027054 0.000005 -0.000008 0.000008 0.000003 0.000007 -0.000001 0.000001 0.000001 -0.000005 -0.257651 0.060956 0.018057 0.000006 -0.000000 0.000004 0.000013 0.000023 0.000019 0.000008 0.000005 0.000011 -0.239089 0.105269 -0.018170 -0.000009 0.000001 0.000008 0.000007 -0.000024 -0.000000 0.000001 -0.000006 -0.000010 -0.055412 -0.042006 -0.041939 -0.000009 0.000003 0.000007 -0.000004 0.000006 0.000016 -0.000017 0.000009 -0.000004 -0.310017 0.020716 0.124599 -44.270383 17.500992 -32.313085 52.315755 -0.000006 0.000009 -0.249170 1.108303 -2.307286 -7.815225 0.000008 -0.000004 0.290342 0.061122 0.260120 -46.684801 -0.414923 -17.062357 43.870472 -0.000005 -0.000007 -2.946108 1.920238 -3.755664 -3.484921 0.000001 0.000013 
1.061131 -1.078638 2.143317 16.847649 -13.882626 -418.019708 -0.000000 0.154692 0.259874 0.000004 0.000004 -0.000010 -4.532487 -1.443461 -0.664219 -15.414718 -4.593758 -2.849030 0.000000 0.012376 0.661279 -2.449789 -17.525526 -5.211372 0.358249 0.543352 0.012706 0.060085 -0.196776 0.638168 0.019770 2.960092 0.000922 65.291110 39.011746 -9.329625 0.152604 -0.271495 -136.055415 -0.000442 0.000126 -0.000477 0.267866 -0.074399 0.023427 -0.000035 0.000017 0.000007 0.000155 0.000067 -0.000164 0.000002 0.000001 -0.000004 0.271865 -0.006476 0.027053 -0.000040 0.000011 0.000010 0.000041 0.000108 -0.000033 -0.000035 0.000052 -0.000057 0.257649 0.060956 0.018054 -0.000037 0.000008 0.000014 -0.000025 0.000006 0.000015 0.000050 -0.000016 0.000037 0.239088 0.105269 -0.018170 -0.000024 0.000021 0.000039 0.000003 -0.000012 0.000000 -0.000050 0.000019 0.000036 0.055411 -0.042008 -0.041942 -0.000014 -0.000020 0.000028 -0.000068 -0.000066 0.000006 -0.000155 -0.000245 -0.000011 -0.060085 -0.196776 0.638167 -0.121973 -8.959886 -0.241668 1.071514 -63.399564 -32.508231 0.007969 -0.000278 0.599917 -51.270057 -23.802876 4.508518 -0.267870 -0.074399 0.023430 0.000010 0.000002 0.000000 -0.000003 0.000009 0.000004 0.000001 -0.000010 -0.000001 -0.271866 -0.006479 0.027054 0.000002 -0.000006 0.000008 -0.000001 0.000007 -0.000000 0.000001 -0.000000 -0.000005 -0.257651 0.060956 0.018058 0.000004 0.000003 0.000005 0.000013 0.000021 0.000020 0.000005 0.000006 0.000012 -0.239089 0.105269 -0.018169 -0.000006 0.000001 0.000008 0.000006 -0.000023 -0.000000 0.000003 -0.000008 -0.000011 -0.055412 -0.042005 -0.041938 -0.000012 -0.000001 0.000007 -0.000005 0.000009 0.000013 -0.000013 0.000012 -0.000004 -0.310219 0.022767 0.129386 -43.942466 17.817406 -31.921231 51.771608 -0.000005 0.000008 0.877934 0.536455 -1.143175 -8.753395 0.000009 -0.000005 0.290292 0.061308 0.260839 -46.890335 -1.832960 -16.457880 43.878720 -0.000005 -0.000009 -0.961564 2.303284 -4.695882 -6.024483 0.000002 0.000010 
1.059101 -1.067730 2.137599 15.804955 -15.157730 -422.330978 -0.000001 0.154692 0.259874 0.000002 0.000003 -0.000014 -4.565928 -1.420917 -0.755090 -15.463046 -4.482670 -3.085565 0.000000 0.012376 0.661279 -2.271609 -17.675003 -5.226693 0.493574 0.568878 0.011812 0.060086 -0.196776 0.638168 0.016691 3.234364 0.000734 72.132945 40.734845 -13.882607 0.163576 -0.258469 -130.676655 -0.000458 0.000136 -0.000498 0.267866 -0.074399 0.023427 -0.000033 0.000020 0.000007 0.000149 0.000064 -0.000161 0.000005 -0.000001 -0.000003 0.271865 -0.006476 0.027053 -0.000040 0.000011 0.000009 0.000041 0.000106 -0.000033 -0.000037 0.000052 -0.000054 0.257650 0.060956 0.018054 -0.000037 0.000010 0.000014 -0.000024 0.000008 0.000015 0.000048 -0.000016 0.000037 0.239088 0.105269 -0.018170 -0.000020 0.000026 0.000036 0.000002 -0.000010 0.000001 -0.000048 0.000025 0.000036 0.055411 -0.042009 -0.041941 -0.000013 -0.000014 0.000029 -0.000068 -0.000061 0.000006 -0.000150 -0.000244 -0.000018 -0.060085 -0.196775 0.638168 -0.102862 -9.193696 -0.203177 0.986333 -65.671886 -33.463545 0.004881 -0.000128 -0.525132 -51.270105 -23.802858 4.508454 -0.267871 -0.074399 0.023430 0.000016 0.000002 -0.000001 -0.000003 0.000012 0.000001 0.000000 -0.000009 -0.000003 -0.271866 -0.006479 0.027054 0.000011 -0.000007 0.000008 -0.000004 0.000006 -0.000001 0.000004 -0.000002 -0.000005 -0.257651 0.060956 0.018057 0.000010 -0.000000 0.000004 0.000010 0.000023 0.000019 0.000009 0.000006 0.000012 -0.239089 0.105269 -0.018169 -0.000003 0.000001 0.000009 0.000002 -0.000023 0.000000 0.000008 -0.000007 -0.000011 -0.055412 -0.042005 -0.041938 -0.000007 0.000003 0.000009 -0.000003 0.000006 0.000021 -0.000015 0.000009 -0.000001 -0.310580 0.026202 0.137345 -43.635435 17.835987 -31.399701 50.964573 -0.000005 0.000008 1.251689 0.388676 -0.830752 -8.689328 0.000008 -0.000004 0.290209 0.061621 0.262044 -47.034486 -2.744145 -15.497143 45.357558 -0.000006 -0.000011 1.415115 2.596991 -5.610349 -10.256201 0.000001 0.000011 
1.061274 -1.060054 2.135018 14.609942 -16.301520 -426.813467 -0.000000 0.154692 0.259874 0.000002 0.000004 -0.000015 -4.589842 -1.396112 -0.841157 -15.498333 -4.365602 -3.318622 0.000000 0.012376 0.661278 -2.181295 -17.433762 -5.138585 0.624122 0.580546 0.010601 0.060086 -0.196776 0.638168 0.013982 3.506799 0.000578 76.669966 42.446494 -16.869790 0.170319 -0.247787 -126.401912 -0.000475 0.000141 -0.000518 0.267867 -0.074399 0.023427 -0.000034 0.000019 0.000001 0.000154 0.000062 -0.000159 0.000004 -0.000003 -0.000001 0.271866 -0.006476 0.027053 -0.000041 0.000009 0.000007 0.000041 0.000107 -0.000036 -0.000036 0.000054 -0.000059 0.257650 0.060956 0.018054 -0.000039 0.000009 0.000009 -0.000027 0.000007 0.000018 0.000048 -0.000018 0.000034 0.239088 0.105269 -0.018170 -0.000024 0.000023 0.000034 0.000005 -0.000008 0.000003 -0.000055 0.000021 0.000039 0.055412 -0.042008 -0.041942 -0.000015 -0.000015 0.000024 -0.000066 -0.000061 0.000005 -0.000155 -0.000251 -0.000013 -0.060085 -0.196776 0.638168 -0.085956 -9.418642 -0.169317 1.534850 -67.481429 -33.133275 0.001992 -0.000040 -1.519697 -51.270142 -23.802844 4.508396 -0.267870 -0.074398 0.023430 0.000009 0.000003 -0.000002 -0.000005 0.000008 0.000003 0.000006 -0.000012 -0.000001 -0.271866 -0.006479 0.027054 0.000005 -0.000006 0.000007 -0.000001 0.000005 0.000000 0.000005 -0.000001 -0.000007 -0.257650 0.060956 0.018057 0.000003 0.000000 0.000004 0.000012 0.000023 0.000019 0.000010 0.000006 0.000011 -0.239089 0.105269 -0.018170 -0.000006 0.000000 0.000009 0.000001 -0.000021 0.000000 0.000007 -0.000006 -0.000011 -0.055412 -0.042005 -0.041939 -0.000013 0.000001 0.000009 -0.000007 0.000008 0.000017 -0.000016 0.000012 -0.000004 -0.311105 0.030884 0.148162 -43.198300 17.939408 -30.319999 49.450085 -0.000005 0.000009 1.018618 0.539190 -1.150402 -7.280134 0.000010 -0.000002 0.290091 0.062059 0.263737 -46.867576 -3.085823 -15.641485 46.770960 -0.000006 -0.000009 2.405864 2.216632 -4.896388 -12.858143 0.000001 0.000011 
